# xmcd CD database file
#
# Track frame offsets:
#	150
#	23682
#	47454
#
# Disc length: 942 seconds
#
# Revision: 0
# Processed by: cddbd v1.5.1PL0 Copyright (c) Steve Scherf et al.
# Submitted via: CDex 1.51
#
DISCID=1603ac03
DTITLE=川嶋　あい - マーメイド (EP)
DYEAR=2004
DGENRE=Pop
TTITLE0=マーメイド
TTITLE1=夏のクリスマス
TTITLE2=マーメイド (Instrumental)
EXTD=YEAR: 2004
EXTT0=
EXTT1=
EXTT2=
PLAYORDER=
